<?xml version="1.0" encoding="utf-8"?>
<!-- Generator: Adobe Illustrator 23.0.2, SVG Export Plug-In . SVG Version: 6.00 Build 0)  -->
<svg version="1.1" id="Layer_1" xmlns="http://www.w3.org/2000/svg" xmlns:xlink="http://www.w3.org/1999/xlink" x="0px" y="0px"
	 viewBox="0 0 325 53" style="enable-background:new 0 0 325 53;" xml:space="preserve">
<style type="text/css">
	.st0{fill:#2E374A;}
	.st1{fill:#4DB54B;}
</style>
<g>
	<path class="st0" d="M40.8,31.9l-1.7,2.7c-2.8,4.4-7.5,6.9-12.6,6.9c-8.2,0-14.9-6.8-14.9-15c0-8.2,6.7-15,14.9-15
		c4.6,0,8.9,2,11.8,5.7l1.9,2.5l4.9-3.9l-1.9-2.5c-3.9-5.3-10.2-8-16.7-8c-11.8,0-21.3,9.6-21.3,21.3c0,11.8,9.6,21.3,21.3,21.3
		c7.3,0,13.9-3.7,17.9-9.8l1.8-2.7L40.8,31.9z"/>
	<path class="st0" d="M74.2,32.3c5.1-2.1,8.6-7.1,8.6-12.9c0-7.7-6.3-13.9-13.9-13.9H51.5v6.2h17.4c4.2,0,7.7,3.5,7.7,7.7
		c0,4.3-3.4,7.7-7.7,7.7H51.5v20.5h6.2V33.4h9.6l10.4,14.2h7.7L74.2,32.3z"/>
	<path class="st0" d="M91.4,12h30.8V5.8H91.4V12z M97.7,41.4V29.9h18.2v-6.3H91.4v24.1h30.8v-6.2H97.7z"/>
	<path class="st0" d="M130.6,5.9h-6.5l11.5,41.8h6.5L130.6,5.9z M170,5.9l-9.6,30.3l-10.1-24.4l-14.9,35.9h6.7l8.2-19.6l8.1,19.6
		h4.9l13.2-41.8H170z"/>
	<path class="st0" d="M181.8,22.3v25.3h6.2V22.3c0-1.2-1-2.2-2.2-2.2h-1.8C182.8,20.1,181.8,21.1,181.8,22.3"/>
	<path class="st0" d="M223.2,5.8v29.8L195.9,5.2v10.1l28.9,32.4h4.6V5.8H223.2z M195.9,47.6h6.2V13.6h-6.2V47.6z"/>
	<path class="st0" d="M274.1,15.8l-5,3.9l-1.9-2.5c-2.8-3.7-7.2-5.6-11.8-5.6c-8.2,0-15,6.7-15,15c0,8.2,6.8,15,15,15
		c1.7,0,3.3-0.3,4.9-0.8l3.7,5.4c-2.6,1.2-5.6,1.8-8.6,1.8c-11.8,0-21.3-9.6-21.3-21.3c0-11.7,9.6-21.3,21.3-21.3
		c6.5,0,12.7,2.9,16.7,8L274.1,15.8z"/>
	<path class="st1" d="M184.9,5.2c-2.3,0-4.2,1.9-4.2,4.2c0,2.4,1.9,4.2,4.2,4.2c2.3,0,4.2-1.9,4.2-4.2C189.1,7,187.3,5.2,184.9,5.2"
		/>
	<path class="st0" d="M298.5,5.2c-11.8,0-21.3,9.6-21.3,21.3c0,11.8,9.5,21.3,21.3,21.3c11.8,0,21.3-9.6,21.3-21.3
		C319.9,14.7,310.3,5.2,298.5,5.2 M298.5,41.5c-8.3,0-15-6.7-15-15c0-8.3,6.7-15,15-15c8.3,0,15,6.7,15,15
		C313.5,34.8,306.8,41.5,298.5,41.5"/>
	<path class="st1" d="M298.5,14.2c-6.8,0-12.3,5.5-12.3,12.3c0,6.8,5.5,12.3,12.3,12.3c6.8,0,12.3-5.5,12.3-12.3
		C310.8,19.7,305.3,14.2,298.5,14.2 M298.5,33.4c-3.8,0-6.9-3.1-6.9-6.9c0-3.8,3.1-6.9,6.9-6.9c3.8,0,6.9,3.1,6.9,6.9
		C305.4,30.3,302.3,33.4,298.5,33.4"/>
	<path class="st1" d="M262.8,25.2c-1.4,0-2.8,0.7-3.6,1.8l-3.5,4.6h11.9l6.4-6.4H262.8z"/>
	<path class="st1" d="M267.6,31.6v12.7l4.4-3.4c1.1-0.8,1.8-2.2,1.8-3.5l0.2-12.2L267.6,31.6z"/>
	<rect x="91.4" y="9.4" class="st0" width="6.3" height="24.5"/>
	<rect x="51.5" y="9.4" class="st0" width="6.3" height="24.5"/>
</g>
</svg>
